<?xml version="1.0" encoding="utf-8"?>
<!-- Generator: Adobe Illustrator 25.2.1, SVG Export Plug-In . SVG Version: 6.00 Build 0)  -->
<svg version="1.1" id="Layer_1" xmlns="http://www.w3.org/2000/svg" xmlns:xlink="http://www.w3.org/1999/xlink" x="0px" y="0px"
	 viewBox="0 0 216 216" style="enable-background:new 0 0 216 216;" xml:space="preserve">
<style type="text/css">
	.st0{fill:#FAA21B;}
	.st1{fill:#70BF54;}
	.st2{fill:#00BAE9;}
	.st3{fill:#128ACB;}
</style>
<g>
	<g>
		<path class="st0" d="M47.2,70.8c0.4-6.5,5.9-12.3,13.3-11.8c2.1,0.1,4.5,0.3,8.2,3c16.5,14.3,26.2,39.6,23.2,61.5
			c-0.1,1.1-1.4,1-1.7,0c-4.6-15.7-19.8-33.7-33.4-39.1C50.4,81.8,46.8,77.1,47.2,70.8z"/>
	</g>
</g>
<path class="st1" d="M89.5,147.9c-4.1-13.8-25-36.6-40.2-36.6c-7.9,0-12.6,6.6-12.2,12.7c0.5,7.5,6.8,11.2,12.6,11.2
	c13.1,0,28.7,5.6,38.5,13.5C88.8,149.3,89.7,148.8,89.5,147.9z"/>
<path class="st2" d="M108.4,164.3c-0.1,1.1-1.4,1-1.7,0C89.5,110.4,120.4,51.5,143.4,51c12.2-0.3,20.5,8.6,20.5,18.5
	c0,6.8-2.2,12.4-10.2,16.9C133.6,97.7,111.1,126.9,108.4,164.3z"/>
<path class="st3" d="M127.8,148.7c-0.7,0.5-1.6,0.1-1.3-0.8l0,0c4.1-13.8,25-36.6,40.2-36.6c7.9,0,12.6,6.6,12.2,12.7
	c-0.5,7.5-6.8,11.2-12.6,11.2C153.6,135.2,137.7,141,127.8,148.7z"/>
</svg>
